<?xml version="1.0" ?><svg height="64" viewBox="0 0 64 64" width="64" xmlns="http://www.w3.org/2000/svg"><defs><style>.cls-1{fill:#006df0;}</style></defs><title/><g data-name="8" id="_8"><path class="cls-1" d="M53,47H52V44a1,1,0,0,0-1-1H46a1,1,0,0,0-1,1v3H44a1,1,0,0,0,0,2h9a1,1,0,0,0,0-2Zm-6,0V45h3v2Z"/><path class="cls-1" d="M60.68,35.26l-7.45-7.94A.97.97,0,0,0,52.5,27h-20a.97.97,0,0,0-.73.32l-7.45,7.94A1.012,1.012,0,0,0,24,36v1a4.5,4.5,0,0,0,4,4.47V53H26V48a1,1,0,0,0-1-1H21a1,1,0,0,0-1,1v5H18V47.41A8,8,0,1,0,8.68,44.9L7.64,45.94l-.65-.65A1.033,1.033,0,0,0,6.28,45a1.052,1.052,0,0,0-.71.29L2.86,48.01A2.925,2.925,0,0,0,4.92,53a2.88,2.88,0,0,0,2.07-.86l2.72-2.71a1.052,1.052,0,0,0,.29-.71,1.033,1.033,0,0,0-.29-.71l-.65-.65,1.04-1.04A7.807,7.807,0,0,0,12,47.41V53H10a1,1,0,0,0,0,2H57a1,1,0,0,0,1-1V41.24A4.521,4.521,0,0,0,61,37V36A1.012,1.012,0,0,0,60.68,35.26ZM5.57,50.73a.942.942,0,0,1-1.3,0A.933.933,0,0,1,4,50.08a.915.915,0,0,1,.27-.65l2.01-2.02,1.31,1.31ZM16,53H14V41h2Zm1-14H13a1,1,0,0,0-1,1v5.2a5.725,5.725,0,0,1-1.24-.96,6,6,0,1,1,8.48,0A5.725,5.725,0,0,1,18,45.2V40A1,1,0,0,0,17,39Zm7,14H22V49h2ZM52.07,29l5.62,6H53.58l-3.37-6Zm-4.15,0,3.37,6H46.83L45.7,29ZM52,37a2.5,2.5,0,0,1-5,0ZM41.33,29h2.34l1.12,6H40.21ZM45,37a2.5,2.5,0,0,1-5,0Zm-5.7-8-1.13,6H33.71l3.37-6ZM38,37a2.5,2.5,0,0,1-5,0Zm-5.07-8h1.86l-3.37,6H27.31ZM26,37h5a2.417,2.417,0,0,1-.25,1.08,2.123,2.123,0,0,1-.37.55,2.548,2.548,0,0,1-.75.59,1.2,1.2,0,0,1-.31.13c-.02.01-.03.02-.05.02a1.89,1.89,0,0,1-.41.1c-.02,0-.03.01-.05.01a1.564,1.564,0,0,1-.31.02A2.5,2.5,0,0,1,26,37ZM39,53H34V45h5Zm17,0H41V44a1,1,0,0,0-1-1H33a1,1,0,0,0-1,1v9H30V41.24a3.054,3.054,0,0,0,.32-.13c.21-.1.41-.21.6-.32a4.626,4.626,0,0,0,.56-.43c.08-.08.17-.16.25-.24a2.622,2.622,0,0,0,.22-.25.209.209,0,0,0,.04-.06c.03-.03.05-.06.08-.09a.359.359,0,0,1-.07.1,4.486,4.486,0,0,0,7,0,4.486,4.486,0,0,0,7,0,4.486,4.486,0,0,0,7,0,3.559,3.559,0,0,0,.46.49,2.172,2.172,0,0,0,.29.24,3.289,3.289,0,0,0,.33.23,4.05,4.05,0,0,0,.35.21,6.81,6.81,0,0,0,.74.31h.01a4.419,4.419,0,0,0,.82.17Zm.81-13.52a1.564,1.564,0,0,1-.31.02A2.5,2.5,0,0,1,54,37h5A2.524,2.524,0,0,1,56.81,39.48Z"/><path class="cls-1" d="M28.52,29a1,1,0,0,1-.01-2h.01a1,1,0,0,1,0,2Z"/><path class="cls-1" d="M32.52,26a1,1,0,0,1-.01-2h.01a1,1,0,0,1,0,2Z"/><path class="cls-1" d="M32.52,23a1,1,0,0,1-.01-2h.01a1,1,0,0,1,0,2Z"/><path class="cls-1" d="M25.52,29a1,1,0,0,1-.01-2h.01a1,1,0,0,1,0,2Z"/><path class="cls-1" d="M22.52,29a1,1,0,0,1-.01-2h.01a1,1,0,0,1,0,2Z"/><path class="cls-1" d="M58.164,24.606A1.506,1.506,0,0,0,57.5,25.85V27a1,1,0,0,1-2,0V25.85a3.5,3.5,0,0,1,1.537-2.9l.093-.063a6.5,6.5,0,1,0-7.26,0,1.049,1.049,0,0,1,.315,1.418.956.956,0,0,1-1.343.3l-.042-.028a8.5,8.5,0,1,1,9.45-.033Z"/><path class="cls-1" d="M55.5,22.5a.976.976,0,0,1-.244-.03,1,1,0,0,1-.727-1.213l.5-1.993a5.7,5.7,0,0,1-3.056,0l.5,1.993a1,1,0,0,1-1.94.486l-1-4a1,1,0,0,1,1.525-1.075A5.285,5.285,0,0,0,53.5,17.5a5.366,5.366,0,0,0,2.445-.832,1,1,0,0,1,1.525,1.075l-1,4A1,1,0,0,1,55.5,22.5Z"/></g></svg>